<svg width="150" height="155" viewBox="0 0 150 155" fill="none" xmlns="http://www.w3.org/2000/svg">
<path d="M137.22 84.6758V47.1442C137.22 34.8775 137.22 28.7514 135.135 23.849C131.791 15.9778 124.698 9.76476 115.715 6.83204C110.13 5 103.13 5 89.1384 5C64.6544 5 52.4124 5 42.6282 8.1934C26.9174 13.3347 14.512 24.2039 8.63993 37.984C5 46.5649 5 57.2893 5 78.7524V97.1887C5 119.419 5 130.535 11.5954 138.261C13.4854 140.47 15.7176 142.432 18.2453 144.09C25.3385 148.747 34.9439 149.652 51.6658 149.826M5 77.4128C5 71.0117 7.73115 64.8729 12.5926 60.3466C17.4541 55.8204 24.0477 53.2776 30.9228 53.2776C36.1027 53.2776 42.2082 54.1176 47.2403 52.8648C49.4391 52.3139 51.4437 51.2345 53.0531 49.7348C54.6626 48.2351 55.8203 46.3678 56.4101 44.3201C57.7557 39.635 56.8535 33.9506 56.8535 29.1279C56.8555 22.7281 59.5876 16.5911 64.4488 12.0665C69.3101 7.54181 75.9025 5 82.7763 5M106.047 124.481H106.125M140.8 117.35C143.6 120.363 145 121.869 145 124.483C145 127.097 143.6 128.611 140.8 131.616C133.8 139.11 121.177 149.828 106.112 149.828C91.0466 149.828 78.4157 139.11 71.4236 131.616C68.6237 128.603 67.2237 127.104 67.2237 124.483C67.2237 121.869 68.6237 120.356 71.4236 117.35C78.4235 109.856 91.0466 99.1386 106.112 99.1386C121.177 99.1386 133.808 109.856 140.8 117.35Z" stroke="url(#paint0_linear_281_1940)" stroke-width="10" stroke-linecap="round" stroke-linejoin="round"/>
<defs>
<linearGradient id="paint0_linear_281_1940" x1="5" y1="141.53" x2="166.858" y2="41.9247" gradientUnits="userSpaceOnUse">
<stop stop-color="#3E00A3"/>
<stop offset="1" stop-color="#DA70FF"/>
</linearGradient>
</defs>
</svg>
