<svg width="150" height="150" viewBox="0 0 150 150" fill="none" xmlns="http://www.w3.org/2000/svg">
<path d="M117 120.5L118.946 110.798C119.968 105.667 122.712 100.928 123.692 95.79C123.902 94.7213 124.005 93.6247 124 92.5C123.997 90.0644 123.486 87.6561 122.499 85.4294C121.512 83.2028 120.071 81.2066 118.268 79.5688C116.465 77.9309 114.34 76.6874 112.03 75.9178C109.719 75.1482 107.273 74.8695 104.848 75.0994C102.423 75.3294 100.073 76.0629 97.948 77.2532C95.823 78.4435 93.9698 80.0642 92.5071 82.0118C91.0444 83.9593 90.0043 86.1907 89.4535 88.5633C88.9026 90.9358 88.8531 93.3972 89.308 95.79C90.288 100.935 93.032 105.66 94.061 110.798L96 120.5M117 120.5H96M117 120.5L134.479 125.162C137.463 125.826 140.132 127.487 142.044 129.872C143.957 132.257 145 135.223 145 138.28C145 141.99 141.99 145 138.28 145H74.72C72.9377 145 71.2285 144.292 69.9682 143.032C68.708 141.772 68 140.062 68 138.28C68 131.98 72.375 126.527 78.521 125.162L96 120.5M110 54V47C110 27.204 110 17.299 103.847 11.153C97.701 5 87.796 5 68 5H47C27.204 5 17.299 5 11.153 11.153C5 17.299 5 27.204 5 47V103C5 122.796 5 132.701 11.153 138.847C17.299 145 27.204 145 47 145M39.1026 60.9696C39.1026 60.9696 43.5897 60.9696 48.0769 70.1049C48.0769 70.1049 62.3282 47.2634 75 42.6923M31.9231 97.5175H60.641M31.9231 118.077H60.641" stroke="url(#paint0_linear_281_1887)" stroke-width="10" stroke-linecap="round" stroke-linejoin="round"/>
<defs>
<linearGradient id="paint0_linear_281_1887" x1="5" y1="136.979" x2="163.798" y2="35.8871" gradientUnits="userSpaceOnUse">
<stop stop-color="#3E00A3"/>
<stop offset="1" stop-color="#DA70FF"/>
</linearGradient>
</defs>
</svg>
