<svg width="120" height="146" viewBox="0 0 120 146" fill="none" xmlns="http://www.w3.org/2000/svg">
<path d="M5 129.97V116.085C5 108.719 7.89135 101.656 13.038 96.4476C18.1846 91.2395 25.165 88.3136 32.4434 88.3136H49.5955M94.1979 129.97C90.5587 129.97 87.0685 128.507 84.4952 125.903C81.9219 123.299 80.4762 119.767 80.4762 116.085C80.4762 112.402 81.9219 108.87 84.4952 106.266C87.0685 103.662 90.5587 102.199 94.1979 102.199M94.1979 129.97C97.8371 129.97 101.327 128.507 103.901 125.903C106.474 123.299 107.92 119.767 107.92 116.085C107.92 112.402 106.474 108.87 103.901 106.266C101.327 103.662 97.8371 102.199 94.1979 102.199M94.1979 129.97V140.385M94.1979 102.199V91.785M114.993 103.935L106.081 109.142M82.3218 123.028L73.4027 128.235M73.4027 103.935L82.3218 109.142M106.081 123.028L115 128.235M18.7217 32.7712C18.7217 40.1366 21.613 47.2003 26.7597 52.4084C31.9063 57.6165 38.8867 60.5424 46.1651 60.5424C53.4435 60.5424 60.4239 57.6165 65.5705 52.4084C70.7171 47.2003 73.6085 40.1366 73.6085 32.7712C73.6085 25.4058 70.7171 18.3421 65.5705 13.134C60.4239 7.92588 53.4435 5 46.1651 5C38.8867 5 31.9063 7.92588 26.7597 13.134C21.613 18.3421 18.7217 25.4058 18.7217 32.7712Z" stroke="url(#paint0_linear_281_1886)" stroke-width="10" stroke-linecap="round" stroke-linejoin="round"/>
<defs>
<linearGradient id="paint0_linear_281_1886" x1="5" y1="132.628" x2="143.327" y2="61.0794" gradientUnits="userSpaceOnUse">
<stop stop-color="#3E00A3"/>
<stop offset="1" stop-color="#DA70FF"/>
</linearGradient>
</defs>
</svg>
