<svg width="160" height="160" viewBox="0 0 160 160" fill="none" xmlns="http://www.w3.org/2000/svg">
<path d="M45.7599 115.699L59.8479 111.635L144.672 25.7999C145.341 25.1143 145.713 24.193 145.709 23.2351C145.704 22.2772 145.323 21.3594 144.648 20.6802L139.568 15.5445C139.24 15.2072 138.847 14.9386 138.414 14.7546C137.981 14.5705 137.515 14.4745 137.045 14.4723C136.574 14.47 136.108 14.5616 135.673 14.7415C135.238 14.9215 134.843 15.1863 134.512 15.5205L49.9119 101.131L45.7599 115.699ZM149.624 5.36905L154.704 10.5128C161.712 17.6083 161.776 29.0557 154.832 36.0793L67.4239 124.538L37.3119 133.21C35.4735 133.724 33.506 133.488 31.8412 132.554C30.1765 131.62 28.9503 130.063 28.432 128.226C28.0462 126.905 28.0407 125.502 28.416 124.178L37.1759 93.4599L124.352 5.23306C126.009 3.56402 127.983 2.24173 130.157 1.3433C132.331 0.444882 134.662 -0.0116866 137.015 0.00022729C139.367 0.0121412 141.693 0.492299 143.858 1.4127C146.023 2.33309 147.983 3.68331 149.624 5.36905ZM57.4719 14.5925C61.4399 14.5925 64.6559 17.8483 64.6559 21.8641C64.6622 22.8134 64.4814 23.7546 64.1236 24.6339C63.7659 25.5133 63.2384 26.3135 62.5712 26.9888C61.904 27.6642 61.1102 28.2014 60.2352 28.5698C59.3603 28.9381 58.4213 29.1304 57.4719 29.1357H28.736C20.8 29.1357 14.368 35.6473 14.368 43.6708V130.914C14.368 138.945 20.8 145.457 28.736 145.457H114.944C122.88 145.457 129.32 138.945 129.32 130.914V101.835C129.32 97.8196 132.536 94.5638 136.504 94.5638C140.472 94.5638 143.688 97.8196 143.688 101.843V130.914C143.688 146.977 130.816 160 114.944 160H28.736C12.864 160 0 146.977 0 130.914V43.6708C0 27.6158 12.864 14.5925 28.736 14.5925H57.4719Z" fill="url(#paint0_linear_281_1888)"/>
<defs>
<linearGradient id="paint0_linear_281_1888" x1="2.403e-06" y1="150.833" x2="181.483" y2="35.2996" gradientUnits="userSpaceOnUse">
<stop stop-color="#3E00A3"/>
<stop offset="1" stop-color="#DA70FF"/>
</linearGradient>
</defs>
</svg>
